# xmcd
#
# Track frame offsets:
#	225
#	12504
#	23570
#	37077
#	51467
#	61439
#	73429
#	91084
#	102145
#	115697
#	128170
#	142833
#	158627
#	169667
#	182073
#	196885
#
# Disc length: 2786 seconds
#
# Revision: 1
# Processed by: cddbd v1.5.2PL0 Copyright (c) Steve Scherf et al.
# Submitted via: audiograbber 1.83.01
#
DISCID=d80adf10
DTITLE=Various Artist - Blues
DYEAR=1900
DGENRE=Blues
TTITLE0=Johnny Otis - Willy and the handjive
TTITLE1=Howlin' Wolf - Little red rooster
TTITLE2=Memphis Slim - Slim's Blues
TTITLE3=Otis Rush - So many roads
TTITLE4=John Lee Hooker - Dimples
TTITLE5=Muddy Waters - The stuff you gotta watch
TTITLE6=Travelling Blues - C. C. Rider
TTITLE7=B. B. King - Catfish blues
TTITLE8=Joe Turner - Shake, rattle and roll
TTITLE9=Ray Charles - Goin' down slow
TTITLE10=Bishop "Gatemouthe" Moore - Ain't mad about you, pretty baby
TTITLE11=Eddie "Cleanhead" Vinson - I'm the midnight creeper
TTITLE12=Bo Diddley - Bo Diddley
TTITLE13=Joe Liggins and The Honeydrippers - Pink champagne
TTITLE14=Pee Wee Crayton - Texas hop
TTITLE15=Amos Milburn - Chicken chack
EXTD=
EXTT0=
EXTT1=
EXTT2=
EXTT3=
EXTT4=
EXTT5=
EXTT6=
EXTT7=
EXTT8=
EXTT9=
EXTT10=
EXTT11=
EXTT12=
EXTT13=
EXTT14=
EXTT15=
PLAYORDER=
